<svg id="SvgjsSvg1006" width="288" height="288" xmlns="http://www.w3.org/2000/svg" version="1.1" xmlns:xlink="http://www.w3.org/1999/xlink" xmlns:svgjs="http://svgjs.com/svgjs"><defs id="SvgjsDefs1007"></defs><g id="SvgjsG1008"><svg xmlns="http://www.w3.org/2000/svg" xmlns:svgjs="http://svgjs.com/svgjs" xmlns:xlink="http://www.w3.org/1999/xlink" viewBox="0 0 288 288" width="288" height="288"><svg xmlns="http://www.w3.org/2000/svg" fill-rule="evenodd" clip-rule="evenodd" image-rendering="optimizeQuality" shape-rendering="geometricPrecision" text-rendering="geometricPrecision" viewBox="0 0 512 512" width="288" height="288"><path fill="#9abddc" d="M 232.5,-0.5 C 247.833,-0.5 263.167,-0.5 278.5,-0.5C 358.893,9.09801 422.393,46.7647 469,112.5C 492.821,149.131 506.987,189.131 511.5,232.5C 511.5,247.833 511.5,263.167 511.5,278.5C 501.902,358.893 464.235,422.393 398.5,469C 361.869,492.821 321.869,506.987 278.5,511.5C 263.167,511.5 247.833,511.5 232.5,511.5C 152.107,501.902 88.6066,464.235 42,398.5C 18.1791,361.868 4.01239,321.868 -0.5,278.5C -0.5,263.167 -0.5,247.833 -0.5,232.5C 9.09756,152.108 46.7642,88.6077 112.5,42C 149.131,18.1794 189.131,4.01272 232.5,-0.5 Z M 244.5,35.5 C 330.893,34.935 397.393,70.6017 444,142.5C 486,217.833 486,293.167 444,368.5C 399.981,436.611 337.148,472.277 255.5,475.5C 173.852,472.277 111.019,436.611 67,368.5C 25,293.167 25,217.833 67,142.5C 108.372,77.6865 167.538,42.0198 244.5,35.5 Z" class="color000 svgShape colord1e5f4" opacity=".969"></path><path fill="#9abddc" d="M 241.5,126.5 C 262.462,124.725 282.128,128.892 300.5,139C 322.561,155.184 329.394,176.351 321,202.5C 316.946,212.546 311.279,221.546 304,229.5C 297.461,235.708 290.627,241.541 283.5,247C 270.306,259.217 264.806,274.384 267,292.5C 262.327,298.77 255.993,301.436 248,300.5C 240.804,301.471 235.138,299.138 231,293.5C 225.559,271.569 229.559,251.569 243,233.5C 253.333,224.5 263.667,215.5 274,206.5C 281.909,196.746 282.909,186.413 277,175.5C 266.316,166.681 254.149,163.848 240.5,167C 233.45,168.944 227.617,172.778 223,178.5C 217.179,191.651 207.679,195.151 194.5,189C 185.61,182.145 183.11,173.311 187,162.5C 193.294,147.54 204.128,137.373 219.5,132C 226.823,129.575 234.157,127.742 241.5,126.5 Z" class="color000 svgShape colord1e5f4" opacity=".966"></path><path fill="#9abddc" d="M 246.5,322.5 C 265.384,324.291 274.551,334.625 274,353.5C 269.619,370.281 258.786,377.448 241.5,375C 229.047,371.046 222.38,362.546 221.5,349.5C 223.358,334.315 231.691,325.315 246.5,322.5 Z" class="color000 svgShape colord1e5f4" opacity=".957"></path></svg></svg></g></svg>